<svg width="31" height="31" viewBox="0 0 31 31" fill="none" xmlns="http://www.w3.org/2000/svg">
<path fill-rule="evenodd" clip-rule="evenodd" d="M10.9581 0.381409C8.82151 0.828409 8.0374 1.82441 8.11319 3.25841C8.22104 5.27441 10.3751 9.11741 11.4041 10.8304C13.2026 13.8244 15.3305 16.5274 17.6974 19.0144C19.6154 20.9644 20.8134 21.3874 22.8626 18.5074C24.6086 16.1374 26.2263 13.7764 27.6109 10.8364C28.2201 9.54341 28.7798 8.13341 29.2811 6.55241C29.8204 4.70741 29.6251 3.07241 27.8703 1.86941C29.5697 2.71541 30.3014 4.28441 30.4092 6.00941C30.5142 7.67741 30.0274 9.49241 29.6572 10.8304C28.7361 14.1604 27.5555 17.5174 26.0631 20.5354C24.935 22.8154 23.498 25.5574 22.0639 27.5884C18.8896 32.0824 15.8435 30.6304 12.2727 27.5884C10.0108 25.6594 7.83336 23.2174 5.96783 20.5534C4.08189 17.8624 1.99774 13.8784 0.77057 10.8184C-0.914238 6.62741 0.394551 4.47941 2.47578 3.11741C4.76106 1.62341 8.18315 0.774409 10.9552 0.381409H10.9581Z" fill="url(#paint0_linear_210_4256)"/>
<path fill-rule="evenodd" clip-rule="evenodd" d="M10.8854 9.94539C14.1909 9.43839 22.7811 8.88639 25.7951 10.4944C26.8037 11.0314 26.8328 11.7604 26.7308 12.5854C27.034 12.0244 27.3284 11.4454 27.614 10.8424C28.2232 9.54939 28.7829 8.13939 29.2843 6.55839C29.8235 4.71339 29.6282 3.07839 27.8734 1.87539L27.8647 1.86939C27.2118 1.51839 26.4597 1.26339 25.7864 1.05939C23.7984 0.468393 21.5948 0.225395 19.3824 0.0603947C18.4671 -0.0086053 17.511 -0.00260603 16.5403 0.00339397C14.7914 0.00939397 12.8676 0.117393 10.9554 0.384393C8.81879 0.831393 8.0376 1.82739 8.11338 3.26139C8.20374 4.97739 9.78362 8.02239 10.8825 9.94539H10.8854Z" fill="url(#paint1_linear_210_4256)"/>
<defs>
<linearGradient id="paint0_linear_210_4256" x1="26.719" y1="19.5364" x2="2.00348" y2="2.72089" gradientUnits="userSpaceOnUse">
<stop stop-color="#006840"/>
<stop offset="0.4" stop-color="#007A48"/>
<stop offset="1" stop-color="#86C440"/>
</linearGradient>
<linearGradient id="paint1_linear_210_4256" x1="11.5034" y1="0.231394" x2="26.1284" y2="10.1828" gradientUnits="userSpaceOnUse">
<stop stop-color="#006840"/>
<stop offset="0.3" stop-color="#007A48"/>
<stop offset="1" stop-color="#86C440"/>
</linearGradient>
</defs>
</svg>
